name rise30.6535peak61.5555fall82.9339.mot
datacolumns 19
datarows 30
range 23.12823800000000 23.17657100000000
endheader
time	ground_force1_vx	ground_force1_vy	ground_force1_vz	ground_force1_px	ground_force1_py	ground_force1_pz	ground_force2_vx	ground_force2_vy	ground_force2_vz	ground_force2_px	ground_force2_py	ground_force2_pz	ground_torque1_x	ground_torque1_y	ground_torque1_z	ground_torque2_x	ground_torque2_y	ground_torque2_z	
23.12823800000000	12.62112000000000	699.20891900000004	41.42751200000000	0.26243400000000	0.00000000000000	0.10485700000000	0.00000000000000	0.00000000000000	0.00000000000000	0.00000000000000	0.00000000000000	0.00000000000000	0.00000000000000	19.05958300000000	0.00000000000000	0.00000000000000	0.00000000000000	0.00000000000000	
23.12991000000000	12.24765000000000	699.77257799999995	41.50619100000000	0.26196600000000	0.00000000000000	0.10490300000000	0.00000000000000	0.00000000000000	0.00000000000000	0.00000000000000	0.00000000000000	0.00000000000000	0.00000000000000	19.15868900000000	0.00000000000000	0.00000000000000	0.00000000000000	0.00000000000000	
23.13157800000000	11.86401900000000	700.36707000000001	41.58930200000000	0.26149800000000	0.00000000000000	0.10495000000000	0.00000000000000	0.00000000000000	0.00000000000000	0.00000000000000	0.00000000000000	0.00000000000000	0.00000000000000	19.26196700000000	0.00000000000000	0.00000000000000	0.00000000000000	0.00000000000000	
23.13324200000000	11.47001600000000	700.99203899999998	41.67650300000000	0.26102700000000	0.00000000000000	0.10499500000000	0.00000000000000	0.00000000000000	0.00000000000000	0.00000000000000	0.00000000000000	0.00000000000000	0.00000000000000	19.36910900000000	0.00000000000000	0.00000000000000	0.00000000000000	0.00000000000000	
23.13490800000000	11.06545400000000	701.64719600000001	41.76746500000000	0.26055100000000	0.00000000000000	0.10504000000000	0.00000000000000	0.00000000000000	0.00000000000000	0.00000000000000	0.00000000000000	0.00000000000000	0.00000000000000	19.47981100000000	0.00000000000000	0.00000000000000	0.00000000000000	0.00000000000000	
23.13659700000000	10.65018100000000	702.33232099999998	41.86187100000000	0.26006800000000	0.00000000000000	0.10508500000000	0.00000000000000	0.00000000000000	0.00000000000000	0.00000000000000	0.00000000000000	0.00000000000000	0.00000000000000	19.59377000000000	0.00000000000000	0.00000000000000	0.00000000000000	0.00000000000000	
23.13823800000000	10.22407300000000	703.04725800000006	41.95941800000000	0.25957400000000	0.00000000000000	0.10512900000000	0.00000000000000	0.00000000000000	0.00000000000000	0.00000000000000	0.00000000000000	0.00000000000000	0.00000000000000	19.71069300000000	0.00000000000000	0.00000000000000	0.00000000000000	0.00000000000000	
23.13990700000000	9.78703800000000	703.79191300000002	42.05981800000000	0.25906800000000	0.00000000000000	0.10517300000000	0.00000000000000	0.00000000000000	0.00000000000000	0.00000000000000	0.00000000000000	0.00000000000000	0.00000000000000	19.83028800000000	0.00000000000000	0.00000000000000	0.00000000000000	0.00000000000000	
23.14157500000000	9.33901600000000	704.56625099999997	42.16279600000000	0.25854700000000	0.00000000000000	0.10521700000000	0.00000000000000	0.00000000000000	0.00000000000000	0.00000000000000	0.00000000000000	0.00000000000000	0.00000000000000	19.95227200000000	0.00000000000000	0.00000000000000	0.00000000000000	0.00000000000000	
23.14324400000000	8.87998200000000	705.37028799999996	42.26809400000000	0.25800800000000	0.00000000000000	0.10526100000000	0.00000000000000	0.00000000000000	0.00000000000000	0.00000000000000	0.00000000000000	0.00000000000000	0.00000000000000	20.07636800000000	0.00000000000000	0.00000000000000	0.00000000000000	0.00000000000000	
23.14490600000000	8.40994100000000	706.20409299999994	42.37546800000000	0.25745000000000	0.00000000000000	0.10530500000000	0.00000000000000	0.00000000000000	0.00000000000000	0.00000000000000	0.00000000000000	0.00000000000000	0.00000000000000	20.20230600000000	0.00000000000000	0.00000000000000	0.00000000000000	0.00000000000000	
23.14657500000000	7.92893300000000	707.06777999999997	42.48469100000000	0.25687100000000	0.00000000000000	0.10535000000000	0.00000000000000	0.00000000000000	0.00000000000000	0.00000000000000	0.00000000000000	0.00000000000000	0.00000000000000	20.32982700000000	0.00000000000000	0.00000000000000	0.00000000000000	0.00000000000000	
23.14824500000000	7.43703500000000	707.96150200000000	42.59555200000000	0.25626900000000	0.00000000000000	0.10539400000000	0.00000000000000	0.00000000000000	0.00000000000000	0.00000000000000	0.00000000000000	0.00000000000000	0.00000000000000	20.45867800000000	0.00000000000000	0.00000000000000	0.00000000000000	0.00000000000000	
23.14990500000000	6.93435300000000	708.88544800000000	42.70785600000000	0.25564200000000	0.00000000000000	0.10543900000000	0.00000000000000	0.00000000000000	0.00000000000000	0.00000000000000	0.00000000000000	0.00000000000000	0.00000000000000	20.58861500000000	0.00000000000000	0.00000000000000	0.00000000000000	0.00000000000000	
23.15157300000000	6.42103000000000	709.83983699999999	42.82142400000000	0.25498900000000	0.00000000000000	0.10548400000000	0.00000000000000	0.00000000000000	0.00000000000000	0.00000000000000	0.00000000000000	0.00000000000000	0.00000000000000	20.71940600000000	0.00000000000000	0.00000000000000	0.00000000000000	0.00000000000000	
23.15324100000000	5.89724400000000	710.82491100000004	42.93609400000000	0.25430800000000	0.00000000000000	0.10552900000000	0.00000000000000	0.00000000000000	0.00000000000000	0.00000000000000	0.00000000000000	0.00000000000000	0.00000000000000	20.85082900000000	0.00000000000000	0.00000000000000	0.00000000000000	0.00000000000000	
23.15490500000000	5.36320400000000	711.84092999999996	43.05172100000000	0.25359800000000	0.00000000000000	0.10557500000000	0.00000000000000	0.00000000000000	0.00000000000000	0.00000000000000	0.00000000000000	0.00000000000000	0.00000000000000	20.98267100000000	0.00000000000000	0.00000000000000	0.00000000000000	0.00000000000000	
23.15657600000000	4.81915600000000	712.88816799999995	43.16817600000000	0.25285900000000	0.00000000000000	0.10562200000000	0.00000000000000	0.00000000000000	0.00000000000000	0.00000000000000	0.00000000000000	0.00000000000000	0.00000000000000	21.11473000000000	0.00000000000000	0.00000000000000	0.00000000000000	0.00000000000000	
23.15824400000000	4.26537500000000	713.96690300000000	43.28534700000000	0.25208900000000	0.00000000000000	0.10566900000000	0.00000000000000	0.00000000000000	0.00000000000000	0.00000000000000	0.00000000000000	0.00000000000000	0.00000000000000	21.24681700000000	0.00000000000000	0.00000000000000	0.00000000000000	0.00000000000000	
23.15990300000000	3.70217100000000	715.07741399999998	43.40313600000000	0.25128800000000	0.00000000000000	0.10571700000000	0.00000000000000	0.00000000000000	0.00000000000000	0.00000000000000	0.00000000000000	0.00000000000000	0.00000000000000	21.37875400000000	0.00000000000000	0.00000000000000	0.00000000000000	0.00000000000000	
23.16157600000000	3.12988600000000	716.21997099999999	43.52146300000000	0.25045500000000	0.00000000000000	0.10576500000000	0.00000000000000	0.00000000000000	0.00000000000000	0.00000000000000	0.00000000000000	0.00000000000000	0.00000000000000	21.51037200000000	0.00000000000000	0.00000000000000	0.00000000000000	0.00000000000000	
23.16323600000000	2.54889100000000	717.39483600000005	43.64026400000000	0.24959100000000	0.00000000000000	0.10581400000000	0.00000000000000	0.00000000000000	0.00000000000000	0.00000000000000	0.00000000000000	0.00000000000000	0.00000000000000	21.64151700000000	0.00000000000000	0.00000000000000	0.00000000000000	0.00000000000000	
23.16490400000000	1.95958800000000	718.60224700000003	43.75949000000000	0.24869600000000	0.00000000000000	0.10586400000000	0.00000000000000	0.00000000000000	0.00000000000000	0.00000000000000	0.00000000000000	0.00000000000000	0.00000000000000	21.77204500000000	0.00000000000000	0.00000000000000	0.00000000000000	0.00000000000000	
23.16657800000000	1.36240700000000	719.84242099999994	43.87910500000000	0.24776900000000	0.00000000000000	0.10591400000000	0.00000000000000	0.00000000000000	0.00000000000000	0.00000000000000	0.00000000000000	0.00000000000000	0.00000000000000	21.90182200000000	0.00000000000000	0.00000000000000	0.00000000000000	0.00000000000000	
23.16823800000000	0.75780700000000	721.11554200000000	43.99909100000000	0.24681100000000	0.00000000000000	0.10596500000000	0.00000000000000	0.00000000000000	0.00000000000000	0.00000000000000	0.00000000000000	0.00000000000000	0.00000000000000	22.03073000000000	0.00000000000000	0.00000000000000	0.00000000000000	0.00000000000000	
23.16991200000000	0.14627100000000	722.42175999999995	44.11944300000000	0.24582300000000	0.00000000000000	0.10601600000000	0.00000000000000	0.00000000000000	0.00000000000000	0.00000000000000	0.00000000000000	0.00000000000000	0.00000000000000	22.15865600000000	0.00000000000000	0.00000000000000	0.00000000000000	0.00000000000000	
23.17157500000000	-0.47169100000000	723.76117899999997	44.24016900000000	0.24480500000000	0.00000000000000	0.10606800000000	0.00000000000000	0.00000000000000	0.00000000000000	0.00000000000000	0.00000000000000	0.00000000000000	0.00000000000000	22.28550300000000	0.00000000000000	0.00000000000000	0.00000000000000	0.00000000000000	
23.17324400000000	-1.09554800000000	725.13385800000003	44.36129200000000	0.24375900000000	0.00000000000000	0.10612100000000	0.00000000000000	0.00000000000000	0.00000000000000	0.00000000000000	0.00000000000000	0.00000000000000	0.00000000000000	22.41118200000000	0.00000000000000	0.00000000000000	0.00000000000000	0.00000000000000	
23.17490400000000	-1.72474700000000	726.53980400000000	44.48284500000000	0.24268500000000	0.00000000000000	0.10617400000000	0.00000000000000	0.00000000000000	0.00000000000000	0.00000000000000	0.00000000000000	0.00000000000000	0.00000000000000	22.53561400000000	0.00000000000000	0.00000000000000	0.00000000000000	0.00000000000000	
23.17657100000000	-2.35871500000000	727.97896300000002	44.60487700000000	0.24158500000000	0.00000000000000	0.10622700000000	0.00000000000000	0.00000000000000	0.00000000000000	0.00000000000000	0.00000000000000	0.00000000000000	0.00000000000000	22.65873200000000	0.00000000000000	0.00000000000000	0.00000000000000	0.00000000000000	
